<svg width="29" height="30" viewBox="0 0 29 30" fill="none" xmlns="http://www.w3.org/2000/svg">
<circle cx="14.5695" cy="15.2492" r="14.3606" fill="#7C4EE4"/>
<path d="M8.95757 19.6328V11.476H10.543V19.6328H8.95757ZM15.6339 19.6903C15.1054 19.6903 14.6037 19.583 14.1289 19.3686C13.6617 19.1541 13.2481 18.8593 12.8881 18.484C12.5358 18.101 12.2601 17.6568 12.061 17.1513C11.8618 16.6458 11.7623 16.0982 11.7623 15.5085C11.7623 14.9494 11.8618 14.4247 12.061 13.9345C12.2601 13.4367 12.5397 13.0002 12.8996 12.6249C13.2596 12.2496 13.6808 11.9547 14.1634 11.7403C14.6459 11.5258 15.1705 11.4186 15.7373 11.4186C16.5032 11.4186 17.158 11.5832 17.7018 11.9126C18.2532 12.2343 18.6668 12.6632 18.9425 13.1993L17.7592 14.0724C17.5524 13.6665 17.2614 13.3563 16.8861 13.1418C16.5185 12.9274 16.1164 12.8202 15.6798 12.8202C15.3352 12.8202 15.0212 12.8929 14.7378 13.0384C14.4544 13.184 14.2093 13.3831 14.0025 13.6358C13.7957 13.8886 13.6349 14.1796 13.52 14.509C13.4128 14.8383 13.3592 15.1868 13.3592 15.5544C13.3592 15.945 13.4166 16.305 13.5315 16.6343C13.654 16.9637 13.8225 17.2509 14.037 17.496C14.2591 17.741 14.5157 17.9364 14.8067 18.0819C15.0977 18.2197 15.4194 18.2887 15.7717 18.2887C16.1853 18.2887 16.5798 18.1814 16.955 17.967C17.338 17.7525 17.6941 17.4385 18.0235 17.0249V18.5874C17.3418 19.3226 16.5453 19.6903 15.6339 19.6903ZM17.9086 16.5999H16.2657V15.4395H19.2183V19.6328H17.9086V16.5999Z" fill="white"/>
</svg>
