<svg width="29" height="30" viewBox="0 0 29 30" fill="none" xmlns="http://www.w3.org/2000/svg">
<circle cx="14.3606" cy="15.2492" r="14.3606" fill="#7C4EE4"/>
<path d="M8.02983 19.6328V11.476H13.5098V12.8661H9.61524V14.9685H12.855V16.2552H9.61524V19.6328H8.02983ZM21.1981 17.5304C21.1981 17.99 21.0794 18.3767 20.842 18.6908C20.6045 18.9971 20.2829 19.2307 19.8769 19.3916C19.4787 19.5524 19.0421 19.6328 18.5672 19.6328H14.6267V11.476H18.9923C19.3753 11.476 19.7046 11.5794 19.9803 11.7862C20.2637 11.9853 20.4782 12.2457 20.6237 12.5674C20.7769 12.8814 20.8534 13.2108 20.8534 13.5554C20.8534 13.946 20.7539 14.3175 20.5547 14.6698C20.3556 15.0221 20.0646 15.2825 19.6816 15.451C20.1488 15.5889 20.5165 15.8378 20.7845 16.1978C21.0602 16.5577 21.1981 17.002 21.1981 17.5304ZM19.6012 17.2317C19.6012 17.0249 19.5591 16.8411 19.4748 16.6803C19.3906 16.5118 19.2757 16.3816 19.1302 16.2897C18.9923 16.1901 18.8315 16.1403 18.6477 16.1403H16.2121V18.2887H18.5672C18.7587 18.2887 18.931 18.2427 19.0842 18.1508C19.2451 18.0512 19.3714 17.921 19.4633 17.7602C19.5553 17.5994 19.6012 17.4232 19.6012 17.2317ZM16.2121 12.8317V14.8881H18.326C18.5021 14.8881 18.663 14.846 18.8085 14.7617C18.954 14.6775 19.0689 14.5588 19.1532 14.4056C19.2451 14.2524 19.291 14.0686 19.291 13.8541C19.291 13.6473 19.2489 13.4673 19.1646 13.3142C19.0881 13.161 18.9808 13.0423 18.843 12.958C18.7128 12.8738 18.5634 12.8317 18.3949 12.8317H16.2121Z" fill="white"/>
</svg>
