<svg width="32" height="32" viewBox="0 0 32 32" fill="none" xmlns="http://www.w3.org/2000/svg">
<path d="M3.51118 27.9827C0.784657 25.2939 -0.494465 21.2046 0.274295 17.4463C1.03478 13.2255 4.31305 9.54626 8.45295 8.38668C10.4797 10.4428 12.5322 12.4714 14.5681 14.5165C14.9874 14.9211 15.3718 15.3616 15.8242 15.7304C14.3814 15.7451 12.9359 15.6917 11.4949 15.7478C9.50402 15.8738 7.81753 17.7516 7.9288 19.748C7.91041 21.7627 9.71736 23.5835 11.7331 23.5715C15.6982 23.5807 19.6625 23.5706 23.6259 23.578C26.231 26.1859 28.8315 28.7993 31.4505 31.3943C31.0459 31.4716 30.6348 31.4504 30.2265 31.4467C24.1123 31.4477 17.9999 31.4467 11.8875 31.4477C8.78768 31.4559 5.69056 30.198 3.51118 27.9827Z" fill="#7C4EE4"/>
<path d="M7.72439 7.69208C5.14683 5.132 2.60882 2.52962 -1.00827e-06 -0.00012207C6.10227 0.0237863 12.2036 0.00355476 18.3059 0.0109111C19.3303 0.024705 20.3648 -0.0470189 21.3772 0.145171C23.9723 0.502883 26.4303 1.77281 28.2262 3.67816C30.2226 5.74811 31.3904 8.57855 31.4815 11.4494C31.5495 13.8155 30.8801 16.1999 29.5991 18.1899C28.0919 20.5045 25.7627 22.3344 23.083 23.0664C21.0821 21.0332 19.0498 19.0285 17.036 17.0064C16.6304 16.6303 16.2902 16.1797 15.8249 15.8689C15.904 15.8036 15.9895 15.7484 16.0833 15.7043C17.3624 15.731 18.6443 15.7273 19.9243 15.7107C21.9106 15.6556 23.6541 13.8403 23.6146 11.8513C23.6725 10.2356 22.5791 8.68338 21.072 8.12888C20.4972 7.88059 19.8627 7.87692 19.2475 7.88243C15.5343 7.88611 11.822 7.88151 8.10969 7.88519C7.95428 7.88611 7.82554 7.82174 7.72439 7.69208Z" fill="#7C4EE4"/>
</svg>
